<svg xmlns="http://www.w3.org/2000/svg" viewBox="0 0 256 256">
<defs><linearGradient id="g" x1="0" y1="0" x2="1" y2="1"><stop offset="0" stop-color="#D48CEB"/><stop offset="1" stop-color="#8E3DB5"/></linearGradient></defs>
<circle cx="128" cy="128" r="118" fill="url(#g)"/>
<path d="M40 120 Q40 30 128 30 Q216 30 216 120 L200 110 Q190 60 128 58 Q66 60 56 110 Z" fill="#4A2A1A"/>
<ellipse cx="96" cy="126" rx="16" ry="20" fill="#fff"/><ellipse cx="160" cy="126" rx="16" ry="20" fill="#fff"/>
<circle cx="99" cy="130" r="8" fill="#1B1035"/><circle cx="163" cy="130" r="8" fill="#1B1035"/>
<circle cx="102" cy="126" r="3" fill="#fff"/><circle cx="166" cy="126" r="3" fill="#fff"/>
<path d="M95 158 Q128 188 161 158" stroke="#1B1035" stroke-width="8" fill="none" stroke-linecap="round"/>
<rect x="100" y="196" width="56" height="26" rx="8" fill="#FF7A50"/><rect x="118" y="200" width="20" height="10" rx="3" fill="#FFD93D"/>
</svg>