<svg xmlns="http://www.w3.org/2000/svg" viewBox="0 0 256 256">
<defs><linearGradient id="g" x1="0" y1="0" x2="1" y2="1"><stop offset="0" stop-color="#7CC7FF"/><stop offset="1" stop-color="#2E8FE0"/></linearGradient></defs>
<circle cx="128" cy="128" r="118" fill="url(#g)"/>
<path d="M60 70 L52 12 L100 50 Z" fill="#2E8FE0"/><path d="M196 70 L204 12 L156 50 Z" fill="#2E8FE0"/><path d="M64 62 L60 30 L88 52 Z" fill="#FF9BC6"/><path d="M192 62 L196 30 L168 52 Z" fill="#FF9BC6"/>
<ellipse cx="96" cy="118" rx="16" ry="20" fill="#fff"/><ellipse cx="160" cy="118" rx="16" ry="20" fill="#fff"/>
<circle cx="99" cy="122" r="8" fill="#1B1035"/><circle cx="163" cy="122" r="8" fill="#1B1035"/>
<circle cx="102" cy="118" r="3" fill="#fff"/><circle cx="166" cy="118" r="3" fill="#fff"/>
<path d="M100 170 Q128 190 156 170" stroke="#1B1035" stroke-width="8" fill="none" stroke-linecap="round"/>
<ellipse cx="128" cy="150" rx="12" ry="8" fill="#FF6F9C"/>
</svg>